<svg width="322" height="135" viewBox="0 0 322 135" fill="none" xmlns="http://www.w3.org/2000/svg">
<path d="M120 74.4C120 107.537 93.1371 134.4 60 134.4C26.8629 134.4 0 107.537 0 74.4C0 41.2629 26.8629 14.4 60 14.4C93.1371 14.4 120 41.2629 120 74.4Z" fill="url(#paint0_linear_348_574)"/>
<path d="M187.2 60C187.2 93.1371 160.337 120 127.2 120C94.0629 120 67.2 93.1371 67.2 60C67.2 26.8629 94.0629 0 127.2 0C160.337 0 187.2 26.8629 187.2 60Z" fill="url(#paint1_linear_348_574)"/>
<path d="M254.4 60C254.4 93.1371 227.537 120 194.4 120C161.263 120 134.4 93.1371 134.4 60C134.4 26.8629 161.263 0 194.4 0C227.537 0 254.4 26.8629 254.4 60Z" fill="url(#paint2_linear_348_574)"/>
<path d="M321.6 74.4C321.6 107.537 294.737 134.4 261.6 134.4C228.463 134.4 201.6 107.537 201.6 74.4C201.6 41.2629 228.463 14.4 261.6 14.4C294.737 14.4 321.6 41.2629 321.6 74.4Z" fill="url(#paint3_linear_348_574)"/>
<path d="M116.3 93.1992H76.3V89.1992H116.3V93.1992ZM120.3 69.1992H68.3V65.1992H120.3V69.1992ZM76.3 89.1992H72.3V81.1992H112.3V77.1992H72.3V73.1992H116.3V85.1992H76.3V89.1992ZM112.3 45.1992H72.3V41.1992H116.3V61.1992H112.3V45.1992Z" fill="black"/>
<path d="M160.3 65.1992H132.3V41.1992H160.3V45.1992H136.3V61.1992H160.3V65.1992ZM188.3 53.1992H180.3V69.1992H176.3V37.1992H180.3V49.1992H188.3V53.1992ZM148.3 89.1992H144.3V73.1992H184.3V93.1992H148.3V89.1992ZM148.3 89.1992H180.3V77.1992H148.3V89.1992Z" fill="black"/>
<path d="M244.3 93.1992H212.3V89.1992H244.3V93.1992ZM212.3 89.1992H208.3V81.1992H240.3V77.1992H208.3V73.1992H244.3V85.1992H212.3V89.1992ZM204.3 65.1992V69.1992H200.3V65.1992H204.3ZM204.3 65.1992V61.1992H212.3V65.1992H204.3ZM244.3 37.1992H248.3V69.1992H244.3V37.1992ZM212.3 61.1992V57.1992H216.3V61.1992H212.3ZM216.3 57.1992V53.1992H220.3V57.1992H216.3ZM220.3 53.1992V45.1992H200.3V41.1992H224.3V53.1992H220.3Z" fill="black"/>
<defs>
<linearGradient id="paint0_linear_348_574" x1="160.8" y1="0" x2="160.8" y2="134.4" gradientUnits="userSpaceOnUse">
<stop stop-color="white"/>
<stop offset="1" stop-color="#FFDD00"/>
</linearGradient>
<linearGradient id="paint1_linear_348_574" x1="160.8" y1="0" x2="160.8" y2="134.4" gradientUnits="userSpaceOnUse">
<stop stop-color="white"/>
<stop offset="1" stop-color="#46FF40"/>
</linearGradient>
<linearGradient id="paint2_linear_348_574" x1="160.8" y1="0" x2="160.8" y2="134.4" gradientUnits="userSpaceOnUse">
<stop stop-color="white"/>
<stop offset="1" stop-color="#7289FB"/>
</linearGradient>
<linearGradient id="paint3_linear_348_574" x1="160.8" y1="0" x2="160.8" y2="134.4" gradientUnits="userSpaceOnUse">
<stop stop-color="white"/>
<stop offset="1" stop-color="#FF6B6B"/>
</linearGradient>
</defs>
</svg>
