<svg width="33" height="33" viewBox="0 0 33 33" fill="none" xmlns="http://www.w3.org/2000/svg">
<g clip-path="url(#clip0_403_13997)">
<path d="M32.5952 5.96484H31.0652V24.2548H32.5952V5.96484Z" fill="#000001"/>
<path d="M31.0652 24.2539H29.5452V25.7739H31.0652V24.2539Z" fill="#000001"/>
<path d="M31.0652 4.44531H29.5452V5.96531H31.0652V4.44531Z" fill="#000001"/>
<path d="M29.5453 25.7754H28.0253V27.2954H29.5453V25.7754Z" fill="#000001"/>
<path d="M29.5453 2.91406H28.0253V4.44406H29.5453V2.91406Z" fill="#000001"/>
<path d="M28.0252 21.2051H26.4952V22.7251H28.0252V21.2051Z" fill="#000001"/>
<path d="M28.0252 7.49414H26.4952V9.01414H28.0252V7.49414Z" fill="#000001"/>
<path d="M28.0252 27.2949H23.4452V28.8249H28.0252V27.2949Z" fill="#000001"/>
<path d="M26.4952 19.6836H24.9752V21.2036H26.4952V19.6836Z" fill="#000001"/>
<path d="M26.4952 9.01367H24.9752V10.5337H26.4952V9.01367Z" fill="#000001"/>
<path d="M28.0252 1.39453H23.4452V2.91453H28.0252V1.39453Z" fill="#000001"/>
<path d="M24.9752 10.5352H23.4452V19.6852H24.9752V10.5352Z" fill="#000001"/>
<path d="M23.4453 25.7754H20.4053V27.2954H23.4453V25.7754Z" fill="#000001"/>
<path d="M23.4453 2.91406H20.4053V4.44406H23.4453V2.91406Z" fill="#000001"/>
<path d="M20.4052 24.2539H17.3552V25.7739H20.4052V24.2539Z" fill="#000001"/>
<path d="M20.4052 4.44531H17.3552V5.96531H20.4052V4.44531Z" fill="#000001"/>
<path d="M17.3552 22.7246H12.7852V24.2546H17.3552V22.7246Z" fill="#000001"/>
<path d="M17.3552 5.96484H12.7852V7.49484H17.3552V5.96484Z" fill="#000001"/>
<path d="M9.73522 21.2041V9.01414H12.7852V7.49414H5.16522V9.01414H2.11521V10.5341H0.595215V19.6841H2.11521V21.2041H5.16522V30.3441H6.68521V22.7241H9.73522V30.3441H11.2552V22.7241H12.7852V21.2041H9.73522ZM5.16522 12.0641H3.64521V15.1041H2.11521V12.0641H3.64521V10.5341H5.16522V12.0641Z" fill="#000001"/>
<path d="M9.73518 30.3438H6.68518V31.8738H9.73518V30.3438Z" fill="#000001"/>
</g>
<defs>
<clipPath id="clip0_403_13997">
<rect width="32" height="32" fill="white" transform="translate(0.595215 0.634766)"/>
</clipPath>
</defs>
</svg>
