<svg width="33" height="33" viewBox="0 0 33 33" fill="none" xmlns="http://www.w3.org/2000/svg">
<g clip-path="url(#clip0_403_15488)">
<path d="M20.5786 9.77477H22.1086V11.3048H26.6786V9.77477H28.1986V8.25477H26.6786V5.20477H25.1486V3.68477H26.6786V5.20477H28.1986V8.25477H29.7286V3.68477H28.1986V2.15477H26.6786V0.634766H22.1086V2.15477H20.5786V3.68477H19.0586V8.25477H20.5786V9.77477Z" fill="#000001"/>
<path d="M19.0586 29.5848H20.5786V31.1148H22.1086V32.6348H26.6786V31.1148H28.1986V29.5848H26.6786V26.5348H25.1486V25.0148H26.6786V26.5348H28.1986V29.5848H29.7286V25.0148H28.1986V23.4948H26.6786V21.9648H22.1086V23.4948H20.5786V25.0148H19.0586V29.5848Z" fill="#000001"/>
<path d="M19.0586 23.4941H17.5386V25.0141H19.0586V23.4941Z" fill="#000001"/>
<path d="M19.0586 8.25391H17.5386V9.77391H19.0586V8.25391Z" fill="#000001"/>
<path d="M17.5385 21.9648H16.0085V23.4948H17.5385V21.9648Z" fill="#000001"/>
<path d="M17.5385 9.77539H16.0085V11.3054H17.5385V9.77539Z" fill="#000001"/>
<path d="M16.0085 20.4453H14.4885V21.9653H16.0085V20.4453Z" fill="#000001"/>
<path d="M16.0085 11.3047H14.4885V12.8247H16.0085V11.3047Z" fill="#000001"/>
<path d="M14.4886 18.9238H12.9586V20.4438H14.4886V18.9238Z" fill="#000001"/>
<path d="M14.4886 12.8242H12.9586V14.3442H14.4886V12.8242Z" fill="#000001"/>
<path d="M5.34858 11.3047V12.8247H3.81858V14.3447H2.29858V18.9247H3.81858V20.4447H5.34858V21.9647H9.91858V20.4447H11.4386V18.9247H12.9586V14.3447H11.4386V12.8247H9.91858V11.3047H5.34858Z" fill="#000001"/>
</g>
<defs>
<clipPath id="clip0_403_15488">
<rect width="32" height="32" fill="white" transform="translate(0.0135498 0.634766)"/>
</clipPath>
</defs>
</svg>
