<svg width="50" height="50" viewBox="0 0 50 50" fill="none" xmlns="http://www.w3.org/2000/svg">
<path d="M42.9996 27.5723H41.2783V39.5644H42.9996V27.5723Z" fill="#000001"/>
<path d="M41.2784 39.5645H39.5684V41.2857H41.2784V39.5645Z" fill="#000001"/>
<path d="M41.2784 25.8535H39.5684V27.5747H41.2784V25.8535Z" fill="#000001"/>
<path d="M41.2784 15.5703H39.5684V20.7114H41.2784V15.5703Z" fill="#000001"/>
<path d="M39.5679 13.8496H37.8467V15.5708H39.5679V13.8496Z" fill="#000001"/>
<path d="M39.5683 41.2891H27.5645V42.999H39.5683V41.2891Z" fill="#000001"/>
<path d="M36.136 34.4263H30.9947V29.2852H29.2734V39.5674H30.9947V36.1362H36.136V39.5674H37.846V29.2852H36.136V34.4263Z" fill="#000001"/>
<path d="M36.1364 27.5723H30.9951V29.2822H36.1364V27.5723Z" fill="#000001"/>
<path d="M39.5683 24.1426H27.5645V25.8525H39.5683V24.1426Z" fill="#000001"/>
<path d="M30.9947 8.70703V10.4282H29.2735V12.1382H27.5635V13.8481H29.2735V15.5693H30.9947V17.2793H32.7048V13.8481H37.846V12.1382H32.7048V8.70703H30.9947Z" fill="#000001"/>
<path d="M27.5635 39.5645H25.8535V41.2857H27.5635V39.5645Z" fill="#000001"/>
<path d="M27.5635 25.8535H25.8535V27.5747H27.5635V25.8535Z" fill="#000001"/>
<path d="M25.855 27.5723H24.1338V39.5644H25.855V27.5723Z" fill="#000001"/>
<path d="M25.855 10.4297H24.1338V22.4218H25.855V10.4297Z" fill="#000001"/>
<path d="M24.1329 22.4219H22.4229V24.1431H24.1329V22.4219Z" fill="#000001"/>
<path d="M24.1329 8.70703H22.4229V10.4282H24.1329V8.70703Z" fill="#000001"/>
<path d="M21.6241 14.8729H20.1817V13.18H21.6241V11.498H20.9878H17.2875L16.2057 11.4986L15.8356 11.498H11.499V13.18H21.6241V14.8729Z" fill="#000001"/>
<path d="M18.9919 41.2871V39.5659H20.7132V37.8559H22.4232V36.1347H20.7132V34.4248H18.9919V32.7148H17.2819V36.1347H12.1406V37.8559H17.2819V41.2871H18.9919Z" fill="#000001"/>
<path d="M22.4228 24.1426H10.4189V25.8525H22.4228V24.1426Z" fill="#000001"/>
<path d="M21.084 13.748H19.374V15.458H21.084V13.748Z" fill="#000001"/>
<path d="M21.0953 14.8711H19.374V16.5923H21.0953V14.8711Z" fill="#000001"/>
<path d="M21.084 17.123H19.374V18.833H21.084V17.123Z" fill="#000001"/>
<path d="M21.084 15.998H19.374V17.708H21.084V15.998Z" fill="#000001"/>
<path d="M19.959 18.2461H18.249V19.956H19.959V18.2461Z" fill="#000001"/>
<path d="M19.959 19.373H18.249V21.083H19.959V19.373Z" fill="#000001"/>
<path d="M18.834 20.498H17.124V22.208H18.834V20.498Z" fill="#000001"/>
<path d="M22.4228 6.99805H10.4189V8.708H22.4228V6.99805Z" fill="#000001"/>
<path d="M12.1402 34.4258H10.4189V36.1357H12.1402V34.4258Z" fill="#000001"/>
<path d="M10.419 29.2852H8.70898V34.4263H10.419V29.2852Z" fill="#000001"/>
<path d="M10.419 22.4219H8.70898V24.1431H10.419V22.4219Z" fill="#000001"/>
<path d="M10.419 8.70703H8.70898V10.4282H10.419V8.70703Z" fill="#000001"/>
<path d="M8.70903 10.4297H6.99902V22.4218H8.70903V10.4297Z" fill="#000001"/>
</svg>
